<svg width="25" height="24" viewBox="0 0 25 24" fill="none" xmlns="http://www.w3.org/2000/svg">
<path d="M19.4841 0H6.41406C5.58564 0 4.91406 0.671573 4.91406 1.5C4.91406 2.32843 5.58564 3 6.41406 3H19.4841C20.3125 3 20.9841 2.32843 20.9841 1.5C20.9841 0.671573 20.3125 0 19.4841 0Z" fill="currentColor"/>
<path d="M0.914062 9.86501V19.965C0.927507 21.0492 1.37098 22.0836 2.14697 22.8408C2.92295 23.598 3.96791 24.0161 5.05206 24.003H19.9521C21.0362 24.0161 22.0812 23.598 22.8572 22.8408C23.6331 22.0836 24.0766 21.0492 24.0901 19.965V9.86501C24.0834 9.32785 23.971 8.79727 23.7592 8.30358C23.5474 7.80989 23.2404 7.36278 22.8557 6.98778C22.4711 6.61278 22.0163 6.31725 21.5174 6.11808C21.0185 5.91891 20.4852 5.82 19.9481 5.82701H5.04806C3.9646 5.815 2.92067 6.23351 2.14555 6.99063C1.37043 7.74775 0.92751 8.78156 0.914062 9.86501ZM3.39706 9.86501C3.4026 9.43145 3.58002 9.01783 3.89034 8.715C4.20066 8.41218 4.6185 8.24494 5.05206 8.25001H19.9521C20.3856 8.24494 20.8035 8.41218 21.1138 8.715C21.4241 9.01783 21.6015 9.43145 21.6071 9.86501V19.965C21.6015 20.3986 21.4241 20.8122 21.1138 21.115C20.8035 21.4178 20.3856 21.5851 19.9521 21.58H5.05206C4.6185 21.5851 4.20066 21.4178 3.89034 21.115C3.58002 20.8122 3.4026 20.3986 3.39706 19.965V9.86501Z" fill="currentColor"/>
<path d="M17.4841 15.522H7.41406C6.58564 15.522 5.91406 16.1935 5.91406 17.022C5.91406 17.8504 6.58564 18.522 7.41406 18.522H17.4841C18.3125 18.522 18.9841 17.8504 18.9841 17.022C18.9841 16.1935 18.3125 15.522 17.4841 15.522Z" fill="currentColor"/>
<path d="M14.7341 10.5H10.1641C9.47371 10.5 8.91406 11.0596 8.91406 11.75C8.91406 12.4404 9.47371 13 10.1641 13H14.7341C15.4244 13 15.9841 12.4404 15.9841 11.75C15.9841 11.0596 15.4244 10.5 14.7341 10.5Z" fill="currentColor"/>
</svg>
