<svg width="24" height="24" viewBox="0 0 24 24" fill="none" xmlns="http://www.w3.org/2000/svg">
<path d="M22.7035 9.9692H20.915C21.3404 11.4689 21.3831 13.0514 21.0391 14.5719C20.6952 16.0924 19.9756 17.5024 18.9461 18.673C18.6965 17.5764 18.194 16.5532 17.4785 15.6854C16.7631 14.8175 15.8547 14.129 14.8258 13.6747C15.4662 13.0917 15.9153 12.3285 16.114 11.4855C16.3127 10.6425 16.2517 9.75908 15.9391 8.95136C15.6265 8.14365 15.0769 7.44939 14.3624 6.9598C13.6479 6.47022 12.8021 6.20822 11.936 6.20822C11.0699 6.20822 10.224 6.47022 9.50959 6.9598C8.79514 7.44939 8.2455 8.14365 7.93289 8.95136C7.62028 9.75908 7.55932 10.6425 7.75802 11.4855C7.95673 12.3285 8.4058 13.0917 9.04624 13.6747C8.01735 14.129 7.10893 14.8176 6.39352 15.6854C5.67811 16.5533 5.17553 17.5764 4.92591 18.673C3.59601 17.1563 2.79333 15.2495 2.6381 13.2382C2.48287 11.227 2.98346 9.21961 4.06487 7.51676C5.14629 5.8139 6.75031 4.50725 8.63668 3.79254C10.523 3.07783 12.5902 2.99354 14.5285 3.55228V1.76173C13.679 1.55901 12.8086 1.45691 11.9353 1.45755C9.74773 1.45774 7.60934 2.10658 5.7905 3.32202C3.97166 4.53746 2.55406 6.26493 1.71694 8.28599C0.879819 10.3071 0.66077 12.531 1.08749 14.6765C1.51421 16.8221 2.56754 18.7929 4.11429 20.3398C5.66123 21.8866 7.63208 22.9399 9.77763 23.3666C11.9232 23.7934 14.1471 23.5743 16.1681 22.7372C18.1892 21.9001 19.9167 20.4825 21.1321 18.6636C22.3476 16.8448 22.9964 14.7064 22.9966 12.5188C22.9971 11.6607 22.8985 10.8054 22.7028 9.9699L22.7035 9.9692ZM9.37185 10.5029C9.37185 9.99574 9.52225 9.49996 9.80404 9.07828C10.0858 8.65659 10.4863 8.32794 10.9549 8.13389C11.4235 7.93983 11.9391 7.88909 12.4365 7.98809C12.9339 8.08708 13.3908 8.33136 13.7494 8.69003C14.1079 9.0487 14.3521 9.50565 14.451 10.0031C14.5498 10.5005 14.4989 11.0161 14.3048 11.4846C14.1106 11.9532 13.7818 12.3536 13.3601 12.6353C12.9383 12.9169 12.4425 13.0672 11.9353 13.0671C11.2556 13.0661 10.604 12.7957 10.1234 12.315C9.64287 11.8343 9.37259 11.1826 9.37185 10.5029ZM6.4814 20.0868C6.52058 18.6662 7.11245 17.3169 8.13111 16.326C9.14977 15.335 10.5148 14.7806 11.936 14.7806C13.3571 14.7806 14.7222 15.335 15.7409 16.326C16.7595 17.3169 17.3514 18.6662 17.3906 20.0868C15.8032 21.2339 13.8945 21.8514 11.936 21.8514C9.97749 21.8514 8.06883 21.2339 6.4814 20.0868ZM17.3353 5.91455L15.4362 4.09912L18.0556 3.7258L19.2081 1.4375L20.3612 3.72719L22.9807 4.1005L21.083 5.91179L21.5261 8.44551L19.2081 7.2502L16.8894 8.44482L17.3353 5.91455Z" fill="currentColor" stroke="currentColor" stroke-width="0.5"/>
</svg>
