<svg width="41" height="42" viewBox="0 0 41 42" fill="none" xmlns="http://www.w3.org/2000/svg">
<path d="M33.0056 24.6274L21.4366 18.0184C20.939 17.7331 20.5262 17.3206 20.2406 16.8231C19.955 16.3256 19.807 15.761 19.8116 15.1874C19.8 14.5559 19.9455 13.9313 20.2351 13.37C20.5247 12.8086 20.9492 12.328 21.4706 11.9714C22.3823 11.3879 23.1261 10.5769 23.6289 9.61831C24.1316 8.65975 24.3759 7.58672 24.3377 6.50499C24.2994 5.42325 23.98 4.37016 23.4108 3.4495C22.8416 2.52883 22.0423 1.77238 21.0917 1.2547C20.1411 0.737019 19.072 0.475976 17.9898 0.497303C16.9076 0.51863 15.8497 0.821591 14.9202 1.37632C13.9908 1.93105 13.2219 2.71841 12.6894 3.66078C12.1569 4.60316 11.8792 5.66802 11.8836 6.75042H15.2836C15.2866 6.25903 15.4173 5.77686 15.6629 5.35126C15.9085 4.92567 16.2606 4.57128 16.6846 4.3229C17.1086 4.07453 17.59 3.94071 18.0813 3.9346C18.5727 3.92848 19.0572 4.05028 19.4872 4.28802C19.9173 4.52577 20.2781 4.87128 20.5342 5.29064C20.7904 5.70999 20.933 6.18876 20.9482 6.67992C20.9634 7.17108 20.8505 7.65774 20.6208 8.0921C20.391 8.52646 20.0522 8.89359 19.6376 9.15742C18.6349 9.81546 17.8141 10.7155 17.251 11.7745C16.6879 12.8334 16.4006 14.0171 16.4156 15.2164C16.4163 15.7998 16.4943 16.3805 16.6476 16.9434L3.22062 24.6274C2.20903 25.2054 1.41688 26.1016 0.967462 27.1766C0.518042 28.2515 0.436558 29.4448 0.735691 30.5708C1.03482 31.6968 1.69779 32.6924 2.62143 33.4026C3.54506 34.1127 4.67754 34.4976 5.84262 34.4974H30.3836C31.5487 34.4976 32.6812 34.1127 33.6048 33.4026C34.5284 32.6924 35.1914 31.6968 35.4905 30.5708C35.7897 29.4448 35.7082 28.2515 35.2588 27.1766C34.8094 26.1016 34.0172 25.2054 33.0056 24.6274ZM30.3836 31.0994H5.84262C5.42736 31.0985 5.02402 30.9605 4.69519 30.7069C4.36636 30.4533 4.13042 30.0983 4.02397 29.6969C3.91753 29.2955 3.94653 28.8702 4.10649 28.487C4.26644 28.1037 4.5484 27.784 4.90862 27.5774L18.3516 19.8934C18.7679 20.3133 19.2388 20.6752 19.7516 20.9694L31.3146 27.5774C31.6748 27.784 31.9568 28.1037 32.1168 28.487C32.2767 28.8702 32.3057 29.2955 32.1993 29.6969C32.0928 30.0983 31.8569 30.4533 31.528 30.7069C31.1992 30.9605 30.7959 31.0985 30.3806 31.0994H30.3836Z" fill="currentColor"/>
<path d="M22.2014 39.5003L22.1839 39.5003H18.1133H16.1133V37.5003V33.4295C16.109 31.371 16.9451 29.3536 18.4071 27.8987L26.8702 19.4356C28.0914 18.2067 29.7853 17.502 31.5179 17.502L31.5224 17.502L31.5289 17.502C34.2001 17.502 36.5874 19.0963 37.6108 21.5637C38.6345 24.0321 38.0758 26.8487 36.1874 28.7393L27.7167 37.2099C26.2695 38.6642 24.258 39.5003 22.2014 39.5003Z" fill="currentColor"/>
<path d="M31.5179 19.502C30.3051 19.502 29.1424 19.9858 28.2876 20.8465L19.8178 29.3163C18.7238 30.4051 18.1101 31.886 18.1133 33.4295L18.1133 37.5003H22.1841C23.7291 37.5043 25.2124 36.8911 26.3025 35.7957L34.7723 27.3259C36.0825 26.0142 36.4737 24.0425 35.7634 22.33C35.0533 20.618 33.3822 19.502 31.5289 19.502C31.5252 19.502 31.5216 19.502 31.5179 19.502ZM22.1841 34.3241H21.2895V33.4295C21.2882 32.727 21.5663 32.0529 22.0623 31.5555L30.5321 23.0858C31.0864 22.5648 31.9543 22.5783 32.4922 23.1161C33.03 23.654 33.0435 24.5219 32.5225 25.0762V25.0814L24.0527 33.5512C23.5567 34.046 22.8847 34.324 22.1841 34.3241ZM31.5179 15.502L31.5273 15.502C33.2318 15.502 34.8803 16.0019 36.2963 16.9476C37.7125 17.8933 38.8058 19.2246 39.4582 20.7975C40.1108 22.371 40.2805 24.0858 39.9491 25.7566C39.6176 27.4274 38.8062 28.9476 37.6024 30.1527L29.1329 38.6222C28.2199 39.5384 27.1514 40.2545 25.957 40.751C24.7606 41.2482 23.497 41.5003 22.2014 41.5003L22.1827 41.5003H14.1133L14.1133 33.4318C14.1114 32.1347 14.3622 30.8694 14.8588 29.671C15.3553 28.4729 16.0728 27.4014 16.9913 26.486L25.4565 18.0208C27.0502 16.4198 29.2588 15.502 31.5179 15.502Z" fill="white"/>
</svg>
