<?xml version="1.0" encoding="UTF-8" standalone="no"?>
<svg
   width="18"
   height="18"
   viewBox="0 0 18 18"
   fill="none"
   version="1.1"
   id="svg3"
   sodipodi:docname="icon-looks-management-update.svg"
   inkscape:version="1.3.2 (091e20ef0f, 2023-11-25)"
   xmlns:inkscape="http://www.inkscape.org/namespaces/inkscape"
   xmlns:sodipodi="http://sodipodi.sourceforge.net/DTD/sodipodi-0.dtd"
   xmlns="http://www.w3.org/2000/svg"
   xmlns:svg="http://www.w3.org/2000/svg">
  <defs
     id="defs3" />
  <sodipodi:namedview
     id="namedview3"
     pagecolor="#ffffff"
     bordercolor="#000000"
     borderopacity="0.25"
     inkscape:showpageshadow="2"
     inkscape:pageopacity="0.0"
     inkscape:pagecheckerboard="0"
     inkscape:deskcolor="#d1d1d1"
     inkscape:zoom="23.821429"
     inkscape:cx="6.2758621"
     inkscape:cy="10.095952"
     inkscape:window-width="1600"
     inkscape:window-height="864"
     inkscape:window-x="2560"
     inkscape:window-y="0"
     inkscape:window-maximized="1"
     inkscape:current-layer="svg3" />
  <path
     d="M 15.9995,11.76571 11.5471,9.15915 C 11.3554,9.04663 11.1964,8.88385 11.0864,8.68752 10.9764,8.4912 10.9195,8.26841 10.9213,8.04205 10.9172,7.79332 10.9735,7.54745 11.085,7.32649 11.1965,7.10552 11.3598,6.91637 11.5602,6.776 11.9118,6.54628 12.1989,6.22658 12.3932,5.84846 12.5874,5.47033 12.6821,5.04684 12.6679,4.61978 12.6536,4.19271 12.531,3.77683 12.312,3.41317 12.093,3.04952 11.7852,2.750651 11.4191,2.546066 11.053,2.341482 10.6411,2.238251 10.2242,2.246558 9.80722,2.254866 9.39959,2.374425 9.04151,2.593439 8.68342,2.812453 8.38725,3.12335 8.18222,3.49546 7.9772,3.86756 7.8704,4.28801 7.87237,4.71532 H 9.18062 C 9.1814,4.52127 9.23149,4.33077 9.32597,4.16259 9.42046,3.99441 9.55606,3.85435 9.71944,3.75621 9.88281,3.65806 10.0683,3.60522 10.2577,3.60288 c 0.1894,-0.0023 0.3761,0.04592 0.5417,0.14 0.1656,0.09408 0.3045,0.23076 0.4029,0.39656 0.0984,0.1658 0.153,0.355 0.1583,0.54898 C 11.3659,4.8824 11.3219,5.07445 11.2327,5.24567 11.1436,5.41689 11.0125,5.56136 10.8523,5.66486 10.4671,5.92495 10.1521,6.28018 9.93615,6.69784 9.72022,7.11549 9.61036,7.58211 9.6167,8.05471 9.61696,8.2849 9.64702,8.51405 9.7061,8.73614 L 4.53851,11.76646 C 4.15083,11.99537 3.84758,12.3488 3.67569,12.7721 3.5038,13.1954 3.47285,13.665 3.58763,14.1081 c 0.11478,0.4432 0.36889,0.8352 0.72301,1.1154 0.35412,0.2803 0.78851,0.4331 1.23595,0.4349 h 9.44851 c 0.4477,-0.0013 0.8825,-0.1539 1.237,-0.4342 0.3545,-0.2802 0.6089,-0.6724 0.7238,-1.1158 0.115,-0.4434 0.0839,-0.9133 -0.0882,-1.3368 C 16.6956,12.348 16.392,11.9945 16.0039,11.76571 Z M 14.9907,14.3179 H 5.54223 C 5.38398,14.3153 5.23089,14.2598 5.10621,14.1599 4.98153,14.0601 4.89209,13.9212 4.85146,13.7644 4.81083,13.6077 4.82125,13.4417 4.88112,13.2915 4.941,13.1414 5.04705,13.0154 5.18319,12.9327 L 10.3573,9.90239 c 0.1608,0.16576 0.3427,0.30855 0.5408,0.4245 l 4.4502,2.60661 c 0.1379,0.0819 0.2457,0.2081 0.3068,0.359 0.061,0.151 0.0719,0.3183 0.031,0.4762 -0.0409,0.1579 -0.1313,0.2977 -0.2574,0.3977 -0.1261,0.1001 -0.2807,0.1549 -0.4402,0.156 z"
     fill="currentColor"
     id="path1" />
  <path
     d="M 6.3793,6.65705 C 6.3793,6.19022 5.99292,5.81044 5.51799,5.81044 H 3.33302 L 3.40882,5.73592 C 3.57274,5.57481 3.66302,5.3619 3.66302,5.13645 3.66302,4.91099 3.57274,4.69809 3.40882,4.53696 3.2449,4.37584 3.02831,4.28711 2.79894,4.28711 c -0.22938,0 -0.44598,0.08873 -0.6099,0.24986 L 0.644371,6.06074 C 0.483277,6.21908 0.390625,6.43659 0.390625,6.65705 c 0,0.22045 0.092652,0.43796 0.254197,0.59674 l 1.543778,1.52289 0.00381,0.0038 0.00393,0.0037 c 0.16628,0.15436 0.38693,0.24289 0.60537,0.24289 0.22758,0 0.44319,-0.08873 0.60711,-0.24985 0.16392,-0.16113 0.2542,-0.37403 0.2542,-0.59949 0,-0.22545 -0.09028,-0.43836 -0.2542,-0.59948 L 3.33302,7.50374 h 2.18497 c 0.47493,0 0.86131,-0.37978 0.86131,-0.8466 z"
     fill="currentColor"
     id="path2" />
  <path
     d="m 0.746807,6.6572 c 0,-0.13105 0.055546,-0.25663 0.149978,-0.34945 L 2.44101,4.78443 c 0.19997,-0.19656 0.51659,-0.19656 0.71656,0 0.19997,0.19655 0.19997,0.50777 0,0.70433 L 2.47434,6.16034 h 3.044 c 0.27774,0 0.50549,0.22385 0.50549,0.49686 0,0.27299 -0.22775,0.49685 -0.50549,0.49685 h -3.044 l 0.68323,0.67158 c 0.19997,0.19655 0.19997,0.50777 0,0.70433 -0.09998,0.09828 -0.22774,0.14742 -0.3555,0.14742 -0.12776,0 -0.26108,-0.0546 -0.36106,-0.14742 L 0.896785,7.00663 C 0.802353,6.91381 0.746807,6.78823 0.746807,6.6572 Z m -0.7116507,0 c 0,0.31252 0.1306347,0.62016 0.3584157,0.84405 L 1.95238,9.03852 c 0.23164,0.21503 0.54134,0.33836 0.84969,0.33836 0.32262,0 0.62758,-0.12511 0.85871,-0.35229 C 3.89191,8.7974 4.0192,8.49668 4.0192,8.17779 4.0192,8.06674 4.00376,7.95787 3.97387,7.85355 h 1.54447 c 0.67113,0 1.21714,-0.53668 1.21714,-1.19635 0,-0.65968 -0.54601,-1.19637 -1.21714,-1.19637 H 3.97387 C 4.00376,5.35652 4.0192,5.24765 4.0192,5.13659 4.0192,4.81771 3.89191,4.51697 3.66077,4.28979 3.42966,4.06262 3.12371,3.9375 2.79929,3.9375 c -0.32442,0 -0.63037,0.12512 -0.8615,0.35231 L 0.392671,5.81402 C 0.165791,6.03702 0.0351563,6.34467 0.0351563,6.6572 Z"
     fill="#ffffff"
     id="path3" />
</svg>
