<svg width="23" height="23" viewBox="0 0 23 23" fill="none" xmlns="http://www.w3.org/2000/svg">
<path d="M15.5587 9.20532C16.3311 9.20532 16.9573 8.57917 16.9573 7.80676C16.9573 7.03436 16.3311 6.4082 15.5587 6.4082C14.7863 6.4082 14.1602 7.03436 14.1602 7.80676C14.1602 8.57917 14.7863 9.20532 15.5587 9.20532Z" fill="currentColor"/>
<path d="M10.1593 22.0438C10.7315 22.6156 11.5074 22.9368 12.3163 22.9368C13.1252 22.9368 13.901 22.6156 14.4732 22.0438L22.1 14.4157C22.3844 14.1326 22.6102 13.7962 22.7644 13.4257C22.9186 13.0552 22.9982 12.6579 22.9987 12.2567V4.62852C22.9987 4.12759 22.9 3.63157 22.7083 3.16878C22.5166 2.70599 22.2356 2.2855 21.8813 1.93132C21.5271 1.57715 21.1066 1.29622 20.6437 1.10458C20.1809 0.912951 19.6849 0.814363 19.1839 0.814454H11.5551C11.1543 0.814122 10.7573 0.892771 10.3868 1.04591C10.0164 1.19905 9.67972 1.42368 9.3961 1.70696L1.76796 9.3351C1.19619 9.9073 0.875 10.6831 0.875 11.492C0.875 12.301 1.19619 13.0768 1.76796 13.649L10.1593 22.0438ZM3.38913 10.9563L11.0173 3.32813C11.0877 3.25702 11.1714 3.20051 11.2637 3.16184C11.356 3.12316 11.4551 3.10309 11.5551 3.10276H19.1839C19.5886 3.10276 19.9767 3.26351 20.2628 3.54964C20.549 3.83578 20.7097 4.22386 20.7097 4.62852V12.2567C20.7094 12.3567 20.6893 12.4557 20.6506 12.548C20.612 12.6403 20.5554 12.7241 20.4843 12.7945L12.8562 20.4233C12.7855 20.4945 12.7015 20.551 12.6089 20.5895C12.5162 20.6281 12.4169 20.6479 12.3166 20.6479C12.2163 20.6479 12.117 20.6281 12.0244 20.5895C11.9318 20.551 11.8477 20.4945 11.777 20.4233L3.38568 12.032C3.31529 11.9611 3.25957 11.877 3.22169 11.7846C3.1838 11.6921 3.1645 11.5932 3.16489 11.4933C3.16527 11.3934 3.18534 11.2945 3.22393 11.2024C3.26253 11.1102 3.31821 11.0266 3.38913 10.9563Z" fill="currentColor"/>
</svg>
