<svg width="18" height="14" viewBox="0 0 18 14" fill="none" xmlns="http://www.w3.org/2000/svg">
<path d="M15.9995 9.76571L11.5471 7.15915C11.3554 7.04663 11.1964 6.88385 11.0864 6.68752C10.9764 6.4912 10.9195 6.26841 10.9213 6.04205C10.9172 5.79332 10.9735 5.54745 11.085 5.32649C11.1965 5.10552 11.3598 4.91637 11.5602 4.776C11.9118 4.54628 12.1989 4.22658 12.3932 3.84846C12.5874 3.47033 12.6821 3.04684 12.6679 2.61978C12.6536 2.19271 12.531 1.77683 12.312 1.41317C12.093 1.04952 11.7852 0.750651 11.4191 0.546066C11.053 0.341482 10.6411 0.238251 10.2242 0.246558C9.80722 0.254866 9.39959 0.374425 9.04151 0.593439C8.68342 0.812453 8.38725 1.12335 8.18222 1.49546C7.9772 1.86756 7.8704 2.28801 7.87237 2.71532H9.18062C9.1814 2.52127 9.23149 2.33077 9.32597 2.16259C9.42046 1.99441 9.55606 1.85435 9.71944 1.75621C9.88281 1.65806 10.0683 1.60522 10.2577 1.60288C10.4471 1.60055 10.6338 1.6488 10.7994 1.74288C10.965 1.83696 11.1039 1.97364 11.2023 2.13944C11.3007 2.30524 11.3553 2.49444 11.3606 2.68842C11.3659 2.8824 11.3219 3.07445 11.2327 3.24567C11.1436 3.41689 11.0125 3.56136 10.8523 3.66486C10.4671 3.92495 10.1521 4.28018 9.93615 4.69784C9.72022 5.11549 9.61036 5.58211 9.6167 6.05471C9.61696 6.2849 9.64702 6.51405 9.7061 6.73614L4.53851 9.76646C4.15083 9.99537 3.84758 10.3488 3.67569 10.7721C3.5038 11.1954 3.47285 11.665 3.58763 12.1081C3.70241 12.5513 3.95652 12.9433 4.31064 13.2235C4.66476 13.5038 5.09915 13.6566 5.54659 13.6584H14.9951C15.4428 13.6571 15.8776 13.5045 16.2321 13.2242C16.5866 12.944 16.841 12.5518 16.9559 12.1084C17.0709 11.665 17.0398 11.1951 16.8677 10.7716C16.6956 10.348 16.392 9.9945 16.0039 9.76571H15.9995ZM14.9907 12.3179H5.54223C5.38398 12.3153 5.23089 12.2598 5.10621 12.1599C4.98153 12.0601 4.89209 11.9212 4.85146 11.7644C4.81083 11.6077 4.82125 11.4417 4.88112 11.2915C4.941 11.1414 5.04705 11.0154 5.18319 10.9327L10.3573 7.90239C10.5181 8.06815 10.7 8.21094 10.8981 8.32689L15.3483 10.9335C15.4862 11.0154 15.594 11.1416 15.6551 11.2925C15.7161 11.4435 15.727 11.6108 15.6861 11.7687C15.6452 11.9266 15.5548 12.0664 15.4287 12.1664C15.3026 12.2665 15.148 12.3213 14.9885 12.3224L14.9907 12.3179Z" fill="white"/>
<path d="M6.3793 4.65705C6.3793 4.19022 5.99292 3.81044 5.51799 3.81044H3.33302L3.40882 3.73592C3.57274 3.57481 3.66302 3.3619 3.66302 3.13645C3.66302 2.91099 3.57274 2.69809 3.40882 2.53696C3.2449 2.37584 3.02831 2.28711 2.79894 2.28711C2.56956 2.28711 2.35296 2.37584 2.18904 2.53697L0.644371 4.06074C0.483277 4.21908 0.390625 4.43659 0.390625 4.65705C0.390625 4.8775 0.483277 5.09501 0.644822 5.25379L2.1886 6.77668L2.19241 6.78044L2.19634 6.78409C2.36262 6.93845 2.58327 7.02698 2.80171 7.02698C3.02929 7.02698 3.2449 6.93825 3.40882 6.77713C3.57274 6.616 3.66302 6.4031 3.66302 6.17764C3.66302 5.95219 3.57274 5.73928 3.40882 5.57816L3.33302 5.50365H5.51799C5.99292 5.50365 6.3793 5.12387 6.3793 4.65705Z" fill="white"/>
<path d="M0.746807 4.6572C0.746807 4.52615 0.802353 4.40057 0.896785 4.30775L2.44101 2.78443C2.64098 2.58787 2.9576 2.58787 3.15757 2.78443C3.35754 2.98098 3.35754 3.2922 3.15757 3.48876L2.47434 4.16034H5.51834C5.79608 4.16034 6.02383 4.38419 6.02383 4.6572C6.02383 4.93019 5.79608 5.15405 5.51834 5.15405H2.47434L3.15757 5.82563C3.35754 6.02218 3.35754 6.3334 3.15757 6.52996C3.05759 6.62824 2.92983 6.67738 2.80207 6.67738C2.67431 6.67738 2.54099 6.62278 2.44101 6.52996L0.896785 5.00663C0.802353 4.91381 0.746807 4.78823 0.746807 4.6572ZM0.0351563 4.6572C0.0351563 4.96972 0.165791 5.27736 0.393572 5.50125L1.95238 7.03852C2.18402 7.25355 2.49372 7.37688 2.80207 7.37688C3.12469 7.37688 3.42965 7.25177 3.66078 7.02459C3.89191 6.7974 4.0192 6.49668 4.0192 6.17779C4.0192 6.06674 4.00376 5.95787 3.97387 5.85355H5.51834C6.18947 5.85355 6.73548 5.31687 6.73548 4.6572C6.73548 3.99752 6.18947 3.46083 5.51834 3.46083L3.97387 3.46083C4.00376 3.35652 4.0192 3.24765 4.0192 3.13659C4.0192 2.81771 3.89191 2.51697 3.66077 2.28979C3.42966 2.06262 3.12371 1.9375 2.79929 1.9375C2.47487 1.9375 2.16892 2.06262 1.93779 2.28981L0.392671 3.81402C0.165791 4.03702 0.0351563 4.34467 0.0351563 4.6572Z" fill="black"/>
</svg>
