<?xml version="1.0" encoding="UTF-8" standalone="no"?>
<svg
   width="18"
   height="18"
   viewBox="0 0 18 18"
   fill="none"
   version="1.1"
   id="svg3"
   sodipodi:docname="icon-look-change.svg"
   inkscape:version="1.3.2 (091e20ef0f, 2023-11-25)"
   xmlns:inkscape="http://www.inkscape.org/namespaces/inkscape"
   xmlns:sodipodi="http://sodipodi.sourceforge.net/DTD/sodipodi-0.dtd"
   xmlns="http://www.w3.org/2000/svg"
   xmlns:svg="http://www.w3.org/2000/svg">
  <defs
     id="defs3" />
  <path
     d="M 14.30704,10.573397 9.8545803,7.9668266 c -0.19169,-0.11251 -0.3507,-0.27529 -0.46068,-0.47162 -0.10998,-0.19633 -0.16696,-0.41911 -0.1651,-0.64548 -0.00408,-0.24872 0.05215,-0.49459 0.16365,-0.71556 0.1115,-0.22096 0.27479,-0.41011 0.47522,-0.55048 0.3516397,-0.22972 0.6387497,-0.54942 0.8329997,-0.92754 0.19425,-0.37813 0.28892,-0.80162 0.27468,-1.22869 -0.01425,-0.42706 -0.13692,-0.84294 -0.3559,-1.2066 -0.21899,-0.36366 -0.52673,-0.662521 -0.8928597,-0.867105 -0.36613,-0.2045839 -0.77798,-0.3078159 -1.19493,-0.2995089 -0.41695,0.00831 -0.82458,0.127868 -1.18267,0.3468809 -0.35809,0.219014 -0.65426,0.529913 -0.85928,0.902013 -0.20503,0.37211 -0.31183,0.79256 -0.30986,1.21987 h 1.30825 c 7.8e-4,-0.19405 0.05088,-0.38455 0.14536,-0.55273 0.09448,-0.16818 0.23009,-0.30824 0.39346,-0.40638 0.16338,-0.09815 0.34889,-0.15099 0.53825,-0.15333 0.18937,-0.0023 0.37607,0.04591 0.54171,0.14 0.16563,0.09408 0.30449,0.23076 0.4029,0.39656 0.0984,0.1658 0.15296,0.355 0.1583,0.54898 0.00534,0.19398 -0.03873,0.38603 -0.12787,0.55725 -0.08913,0.17122 -0.22025,0.31569 -0.38045,0.41919 -0.38514,0.26008 -0.7002,0.61532 -0.91613,1.03297 -0.21593,0.41766 -0.32578,0.88428 -0.31944,1.35688 2.5e-4,0.23019 0.03031,0.45933 0.08939,0.68143 l -5.16759,3.0303204 c -0.38768,0.22891 -0.690926,0.58241 -0.862816,1.00571 -0.171891,0.4233 -0.202841,0.8928 -0.088062,1.3359 0.11478,0.4432 0.36889,0.8352 0.723008,1.1155 0.35412,0.2802 0.78851,0.4331 1.23595,0.4349 H 13.30254 c 0.4477,-0.0014 0.8825,-0.154 1.2371,-0.4342 0.3545,-0.2803 0.6089,-0.6725 0.7238,-1.1159 0.1149,-0.4434 0.0839,-0.9133 -0.0882,-1.3368 -0.1722,-0.4235 -0.4758,-0.7771 -0.8639,-1.00586 z m -1.0089,2.55216 H 3.8497103 c -0.15825,-0.0026 -0.31134,-0.058 -0.43602,-0.1579 -0.12467,-0.0999 -0.21412,-0.2388 -0.25475,-0.3955 -0.04062,-0.1568 -0.03021,-0.3228 0.02967,-0.4729 0.05987,-0.1501 0.16593,-0.2761 0.30206,-0.3589 l 5.17413,-3.0302804 c 0.16081,0.16576 0.3427,0.30855 0.54075,0.4245 L 13.65574,11.741157 c 0.138,0.082 0.2458,0.2081 0.3068,0.3591 0.0611,0.1509 0.072,0.3182 0.0311,0.4761 -0.0409,0.158 -0.1314,0.2977 -0.2575,0.3978 -0.126,0.1 -0.2807,0.1548 -0.4401,0.1559 z"
     fill="white"
     id="path1" />
  <path
     d="m 7.5863003,13.846357 c 0,-0.7455 0.59191,-1.352 1.31947,-1.352 H 12.25304 l -0.1161,-0.119 c -0.2512,-0.2573 -0.3895,-0.5973 -0.3895,-0.9574 0,-0.36 0.1383,-0.70004 0.3895,-0.95735 0.2511,-0.257311 0.5829,-0.39902 0.9343,-0.39902 0.3514,0 0.6832,0.141709 0.9343,0.39903 l 2.3663,2.43344 c 0.2468,0.2529 0.3888,0.6002 0.3888,0.9523 0,0.352 -0.142,0.6994 -0.3894,0.953 l -2.365,2.432 -0.0059,0.006 -0.006,0.0058 c -0.2547,0.2466 -0.5927,0.3879 -0.9274,0.3879 -0.3486,0 -0.6789,-0.1417 -0.93,-0.399 -0.2512,-0.2573 -0.3895,-0.5973 -0.3895,-0.9573 0,-0.3601 0.1383,-0.7001 0.3895,-0.9574 l 0.1161,-0.119 H 8.9057703 c -0.72756,0 -1.31947,-0.6065 -1.31947,-1.352 z"
     fill="white"
     id="path2" />
  <path
     d="m 16.21724,13.846357 c 0,-0.2093 -0.0851,-0.4099 -0.2297,-0.5581 l -2.3657,-2.4327 c -0.3063,-0.31393 -0.7914,-0.31393 -1.0977,0 -0.3064,0.3139 -0.3064,0.8109 0,1.1248 l 1.0467,1.0725 H 8.9075503 c -0.42548,0 -0.77438,0.3575 -0.77438,0.7935 0,0.4359 0.3489,0.7934 0.77438,0.7934 H 13.57084 l -1.0467,1.0725 c -0.3064,0.3139 -0.3064,0.8109 0,1.1248 0.1531,0.157 0.3489,0.2355 0.5446,0.2355 0.1957,0 0.3999,-0.0872 0.5531,-0.2355 l 2.3657,-2.4327 c 0.1446,-0.1482 0.2297,-0.3488 0.2297,-0.558 z m 1.0902,0 c 0,0.499 -0.2001,0.9904 -0.549,1.3479 l -2.388,2.455 c -0.3549,0.3434 -0.8293,0.5404 -1.3017,0.5404 -0.4943,0 -0.9614,-0.1998 -1.3155,-0.5627 -0.3541,-0.3628 -0.54909,-0.843 -0.54909,-1.3523 0,-0.1773 0.02366,-0.3512 0.06944,-0.5178 H 8.9075503 c -1.02814,0 -1.86459,-0.8571 -1.86459,-1.9105 0,-1.0535 0.83645,-1.9106 1.86459,-1.9106 H 11.2736 c -0.04579,-0.1666 -0.06945,-0.3405 -0.06945,-0.5178 0,-0.5093 0.19499,-0.98955 0.54909,-1.35236 0.354,-0.3627804 0.8228,-0.5626004 1.3197,-0.5626004 0.497,0 0.9657,0.19982 1.3198,0.5626304 l 2.3671,2.43413 c 0.3475,0.3562 0.5476,0.8475 0.5476,1.3466 z"
     fill="black"
     id="path3" />
</svg>
