<svg width="38" height="37" viewBox="0 0 38 37" fill="none" xmlns="http://www.w3.org/2000/svg">
<path d="M5.381 15.433V30.5H26.906V15.433H32.287V3.233L29.844 2.62L25.41 1.506C24.554 1.291 23.65 1.106 22.558 0.919001L20.1 0.5L19.072 2.765C18.8131 3.32403 18.3996 3.79733 17.8805 4.12902C17.3613 4.46072 16.7581 4.63697 16.142 4.63697C15.5259 4.63697 14.9227 4.46072 14.4035 4.12902C13.8844 3.79733 13.4709 3.32403 13.212 2.765L12.188 0.5L9.729 0.9C8.653 1.088 7.729 1.271 6.877 1.487L2.443 2.596L0 3.228V15.428L5.381 15.433ZM3.229 5.75L7.663 4.641C8.524 4.426 9.401 4.254 10.273 4.103C10.7878 5.22757 11.6148 6.18062 12.6556 6.84881C13.6964 7.517 14.9072 7.87221 16.144 7.87221C17.3808 7.87221 18.5916 7.517 19.6324 6.84881C20.6732 6.18062 21.5002 5.22757 22.015 4.103C22.892 4.254 23.764 4.42 24.625 4.641L29.058 5.75V12.207H25.83C25.2593 12.207 24.7119 12.4337 24.3083 12.8373C23.9047 13.2409 23.678 13.7883 23.678 14.359V27.271H8.61V14.357C8.61 13.7863 8.38327 13.2389 7.97969 12.8353C7.57612 12.4317 7.02875 12.205 6.458 12.205H3.229V5.75Z" fill="currentColor"/>
<path d="M19.6194 35.0003L19.6019 35.0003H15.5313H13.5313V33.0003V28.9295C13.527 26.871 14.363 24.8536 15.825 23.3987L24.2881 14.9356C25.5094 13.7067 27.2033 13.002 28.9359 13.002L28.9404 13.002L28.9468 13.002C31.6181 13.002 34.0054 14.5963 35.0288 17.0637C36.0525 19.5321 35.4938 22.3487 33.6053 24.2393L25.1347 32.7099C23.6874 34.1642 21.6759 35.0003 19.6194 35.0003Z" fill="currentColor"/>
<path d="M28.9359 15.002C27.7231 15.002 26.5604 15.4858 25.7056 16.3465L17.2358 24.8163C16.1417 25.9051 15.5281 27.386 15.5313 28.9295L15.5313 33.0003H19.6021C21.147 33.0043 22.6304 32.3911 23.7205 31.2957L32.1903 22.8259C33.5005 21.5142 33.8916 19.5425 33.1814 17.83C32.4713 16.118 30.8001 15.002 28.9468 15.002C28.9432 15.002 28.9396 15.002 28.9359 15.002ZM19.6021 29.8241H18.7074V28.9295C18.7062 28.227 18.9842 27.5529 19.4803 27.0555L27.9501 18.5858C28.5044 18.0648 29.3722 18.0783 29.9101 18.6161C30.448 19.154 30.4615 20.0219 29.9405 20.5762V20.5814L21.4707 29.0512C20.9747 29.546 20.3027 29.824 19.6021 29.8241ZM28.9359 11.002L28.9453 11.002C30.6497 11.002 32.2982 11.5019 33.7143 12.4476C35.1304 13.3933 36.2238 14.7246 36.8762 16.2975C37.5287 17.871 37.6985 19.5858 37.367 21.2566C37.0356 22.9274 36.2241 24.4476 35.0204 25.6527L26.5509 34.1222C25.6379 35.0384 24.5694 35.7545 23.3749 36.251C22.1785 36.7482 20.915 37.0003 19.6194 37.0003L19.6006 37.0003H11.5313L11.5313 28.9318C11.5293 27.6347 11.7802 26.3694 12.2768 25.171C12.7733 23.9729 13.4907 22.9014 14.4093 21.986L22.8745 13.5208C24.4682 11.9198 26.6768 11.002 28.9359 11.002Z" fill="white"/>
</svg>
