<svg width="23" height="23" viewBox="0 0 23 23" fill="none" xmlns="http://www.w3.org/2000/svg">
<path d="M17.1869 0.707752C16.7724 0.292558 16.2099 0.059049 15.6231 0.0585938H8.24942C7.66293 0.0592323 7.10071 0.292727 6.68632 0.707752L1.52416 5.86991C1.10913 6.2843 0.875639 6.84653 0.875 7.43301V14.8067C0.875639 15.3932 1.10913 15.9554 1.52416 16.3698L6.68632 21.532C7.10071 21.947 7.66293 22.1805 8.24942 22.1812H15.6231C16.2096 22.1805 16.7719 21.947 17.1862 21.532L22.3484 16.3698C22.7634 15.9554 22.9969 15.3932 22.9976 14.8067V7.43301C22.9969 6.84653 22.7634 6.2843 22.3484 5.86991L17.1869 0.707752ZM15.6231 19.9689H8.24942L6.54391 18.2655C7.09458 17.3246 7.88189 16.5443 8.82759 16.0021C9.77328 15.4598 10.8444 15.1745 11.9346 15.1745C13.0247 15.1745 14.0958 15.4598 15.0415 16.0021C15.9872 16.5443 16.7745 17.3246 17.3252 18.2655L15.6231 19.9689ZM9.35554 10.3822C9.35568 9.87183 9.50715 9.37294 9.79081 8.94863C10.0745 8.52432 10.4776 8.19365 10.9492 7.99843C11.4207 7.8032 11.9396 7.7522 12.4402 7.85185C12.9407 7.95151 13.4005 8.19735 13.7614 8.5583C14.1222 8.91925 14.368 9.3791 14.4675 9.87969C14.567 10.3803 14.5158 10.8992 14.3205 11.3707C14.1251 11.8422 13.7944 12.2452 13.37 12.5288C12.9456 12.8123 12.4467 12.9636 11.9363 12.9636C11.5973 12.9636 11.2617 12.8969 10.9485 12.7671C10.6354 12.6374 10.3508 12.4472 10.1112 12.2075C9.87153 11.9678 9.68144 11.6832 9.55179 11.37C9.42214 11.0569 9.35545 10.7212 9.35554 10.3822ZM20.7853 14.8067L18.9415 16.6505C18.0504 15.3615 16.8231 14.3412 15.3929 13.7006C16.0482 13.0245 16.4898 12.1703 16.6627 11.2447C16.8355 10.3192 16.7319 9.36317 16.3648 8.49612C15.9977 7.62906 15.3833 6.88934 14.5984 6.3693C13.8134 5.84925 12.8927 5.57192 11.9511 5.57192C11.0096 5.57192 10.0888 5.84925 9.30391 6.3693C8.51898 6.88934 7.90461 7.62906 7.53749 8.49612C7.17036 9.36317 7.06676 10.3192 7.23959 11.2447C7.41243 12.1703 7.85406 13.0245 8.50936 13.7006C7.06831 14.3366 5.83027 15.3572 4.93103 16.6505L3.08726 14.8067V7.43301L8.24942 2.27085H15.6231L20.7853 7.43301V14.8067Z" fill="currentColor"/>
</svg>
