<svg width="13" height="22" viewBox="0 0 13 22" fill="none" xmlns="http://www.w3.org/2000/svg">
<path d="M0.07325 13.696H3.16925C3.19325 14.944 4.05725 15.952 5.49725 16.264V11.776C4.44125 11.536 3.45725 11.248 2.54525 10.72C1.41725 10.024 0.57725 8.824 0.57725 6.736C0.57725 4.216 2.42525 2.248 5.49725 1.936V0.615999H7.36925V1.936C10.2493 2.248 12.2893 4.072 12.3853 7.072H9.19325C9.16925 5.944 8.52125 5.128 7.36925 4.864V8.944C7.82525 9.04 8.20925 9.136 8.47325 9.208C9.02525 9.376 10.0573 9.688 10.5613 10C11.1133 10.312 11.8093 10.864 12.1693 11.512C12.5293 12.112 12.7933 13.048 12.7933 14.104C12.7933 16.888 10.7533 18.952 7.36925 19.264V21.04H5.49725V19.264C3.84125 19.096 2.52125 18.496 1.53725 17.488C0.55325 16.48 0.07325 15.208 0.07325 13.696ZM3.74525 6.688C3.74525 7.624 4.34525 8.104 5.49725 8.488V4.84C4.34525 5.056 3.74525 5.752 3.74525 6.688ZM7.36925 12.232V16.336C8.68925 16.12 9.50525 15.4 9.50525 14.344C9.50525 13.216 8.73725 12.616 7.36925 12.232Z" fill="currentColor"/>
</svg>
