<svg width="24" height="23" viewBox="0 0 24 23" fill="none" xmlns="http://www.w3.org/2000/svg">
<path d="M21.786 15.8449L14.2595 11.5455C13.9357 11.3598 13.6672 11.0913 13.4814 10.7675C13.2956 10.4437 13.1994 10.0763 13.2025 9.70308C13.1949 9.29216 13.2895 8.88579 13.4779 8.52051C13.6662 8.15522 13.9424 7.84249 14.2816 7.61043C14.8748 7.23081 15.3587 6.70319 15.6858 6.07957C16.013 5.45595 16.1719 4.75786 16.1471 4.05409C16.1222 3.35033 15.9144 2.66518 15.5441 2.06619C15.1738 1.4672 14.6539 0.975028 14.0354 0.638194C13.417 0.301359 12.7215 0.131484 12.0174 0.145313C11.3134 0.159141 10.6251 0.356195 10.0203 0.717053C9.41562 1.07791 8.91537 1.59012 8.56889 2.20319C8.22241 2.81626 8.04167 3.50903 8.04447 4.21323H10.2567C10.2586 3.89346 10.3436 3.57967 10.5034 3.30269C10.6632 3.0257 10.8923 2.79505 11.1682 2.63336C11.4441 2.47168 11.7573 2.38453 12.0771 2.38047C12.3968 2.37641 12.7121 2.45558 12.992 2.61022C13.2719 2.76485 13.5068 2.98962 13.6736 3.26246C13.8404 3.5353 13.9333 3.84682 13.9433 4.16644C13.9533 4.48607 13.88 4.80279 13.7306 5.08552C13.5812 5.36825 13.3609 5.60727 13.0912 5.77909C12.4391 6.20713 11.9052 6.79249 11.5389 7.48117C11.1726 8.16985 10.9855 8.93968 10.9951 9.71967C10.9956 10.0992 11.0466 10.477 11.1465 10.8431L2.40391 15.8449C1.74576 16.2209 1.23037 16.804 0.937949 17.5033C0.645527 18.2026 0.592473 18.979 0.787042 19.7116C0.981611 20.4442 1.41289 21.092 2.01377 21.5541C2.61464 22.0162 3.35141 22.2667 4.10942 22.2666H20.0791C20.8372 22.2667 21.5739 22.0162 22.1748 21.5541C22.7757 21.092 23.207 20.4442 23.4015 19.7116C23.5961 18.979 23.543 18.2026 23.2506 17.5033C22.9582 16.804 22.4428 16.2209 21.7847 15.8449H21.786ZM20.0805 20.0557H4.1108C3.84055 20.0552 3.57805 19.9654 3.36403 19.8004C3.15001 19.6354 2.99645 19.4044 2.92718 19.1432C2.85792 18.8819 2.87682 18.6051 2.98096 18.3558C3.0851 18.1064 3.26865 17.8984 3.50312 17.764L12.2512 12.765C12.523 13.0385 12.8304 13.274 13.1652 13.4653L20.6882 17.7647C20.9227 17.8991 21.1062 18.1071 21.2104 18.3565C21.3145 18.6058 21.3334 18.8826 21.2641 19.1438C21.1949 19.4051 21.0413 19.6361 20.8273 19.8011C20.6133 19.9661 20.3508 20.0552 20.0805 20.0557Z" fill="currentColor"/>
</svg>
