<svg width="24" height="22" viewBox="0 0 24 22" fill="none" xmlns="http://www.w3.org/2000/svg">
<path d="M4.63802 10.8275V21.2438H19.5189V10.8275H23.2389V2.39331L21.55 1.96953L18.4847 1.19938C17.8929 1.05075 17.2679 0.922853 16.513 0.793574L14.8137 0.503906L14.103 2.06977C13.924 2.45624 13.6382 2.78345 13.2793 3.01276C12.9204 3.24207 12.5033 3.36391 12.0774 3.36391C11.6515 3.36391 11.2345 3.24207 10.8756 3.01276C10.5166 2.78345 10.2308 2.45624 10.0518 2.06977L9.3439 0.503906L7.64392 0.780438C6.90005 0.910408 6.26126 1.03692 5.67225 1.18625L2.60689 1.95293L0.917969 2.38985V10.8241L4.63802 10.8275ZM3.15027 4.13339L6.21563 3.3667C6.81087 3.21807 7.41716 3.09916 8.02 2.99477C8.37592 3.77222 8.94764 4.43109 9.66717 4.89303C10.3867 5.35497 11.2238 5.60054 12.0788 5.60054C12.9338 5.60054 13.7709 5.35497 14.4904 4.89303C15.21 4.43109 15.7817 3.77222 16.1376 2.99477C16.7439 3.09916 17.3467 3.21392 17.942 3.3667L21.0066 4.13339V8.59731H18.775C18.3804 8.59731 18.002 8.75405 17.723 9.03306C17.444 9.31206 17.2873 9.69047 17.2873 10.085V19.0115H6.87032V10.0837C6.87032 9.68909 6.71358 9.31068 6.43457 9.03167C6.15556 8.75267 5.77715 8.59592 5.38258 8.59592H3.15027V4.13339Z" fill="currentColor"/>
</svg>
