<svg width="23" height="23" viewBox="0 0 23 23" fill="none" xmlns="http://www.w3.org/2000/svg">
<path d="M11.5295 0.748163C9.71715 0.762391 7.93607 1.22236 6.34316 2.08757C4.75024 2.95278 3.39436 4.19667 2.39494 5.7097C1.39552 7.22272 0.783214 8.95846 0.611958 10.764C0.440703 12.5696 0.715749 14.3896 1.41287 16.0638C2.11 17.738 3.20781 19.2149 4.60962 20.3645C6.01143 21.5142 7.67423 22.3013 9.45158 22.6564C11.2289 23.0116 13.0663 22.924 14.8018 22.4013C16.5374 21.8786 18.1178 20.9369 19.4041 19.6591C20.4528 18.6406 21.2843 17.4199 21.8482 16.0707C22.4121 14.7215 22.6966 13.2719 22.6847 11.8096C22.6781 10.3503 22.3842 8.90661 21.82 7.56097C21.2559 6.21533 20.4323 4.99407 19.3965 3.96692C18.3606 2.93977 17.1327 2.12685 15.7829 1.57458C14.4331 1.0223 12.9878 0.741485 11.5295 0.748163ZM11.5295 2.81634C13.9259 2.805 16.2287 3.74562 17.9327 5.43172C19.6366 7.11782 20.6024 9.41161 20.618 11.8096C20.6278 13.842 19.9321 15.8149 18.6496 17.391C16.732 15.5577 14.1821 14.5347 11.53 14.5347C8.87803 14.5347 6.32807 15.5577 4.41052 17.391C3.12803 15.8149 2.43227 13.842 2.44214 11.8096C2.45769 9.41179 3.42331 7.11815 5.12704 5.43208C6.83076 3.74601 9.1334 2.80527 11.5295 2.81634ZM5.88604 18.8381C7.40552 17.3843 9.42678 16.5729 11.529 16.5729C13.6313 16.5729 15.6525 17.3843 17.172 18.8381C15.5591 20.0944 13.5734 20.7761 11.5295 20.7754C9.48024 20.8075 7.48411 20.1223 5.88604 18.8381Z" fill="currentColor"/>
<path d="M11.601 13.4824C12.3989 13.476 13.177 13.2334 13.8373 12.7851C14.4976 12.3369 15.0105 11.7031 15.3114 10.9636C15.6123 10.2241 15.6877 9.41205 15.5281 8.62974C15.3685 7.84744 14.9811 7.1299 14.4147 6.56758C13.8482 6.00526 13.1281 5.62332 12.3451 5.4699C11.5621 5.31647 10.7512 5.39843 10.0146 5.70544C9.2781 6.01245 8.64886 6.53078 8.20622 7.19509C7.76358 7.8594 7.52737 8.63997 7.52734 9.43841C7.53431 10.5144 7.96677 11.5439 8.73015 12.3017C9.49353 13.0595 10.5257 13.484 11.601 13.4824ZM11.601 7.4504C11.8642 7.44813 12.1253 7.49778 12.3693 7.59654C12.6133 7.69529 12.8354 7.8412 13.023 8.02593C13.2106 8.21065 13.36 8.43057 13.4626 8.67311C13.5653 8.91565 13.6191 9.17605 13.6211 9.43942C13.6105 9.96924 13.3933 10.4739 13.0158 10.8456C12.6383 11.2172 12.1306 11.4264 11.601 11.4284C11.0738 11.4284 10.5683 11.2189 10.1955 10.8459C9.82277 10.4729 9.61336 9.96694 9.61336 9.43942C9.61336 8.9119 9.82277 8.40598 10.1955 8.03297C10.5683 7.65996 11.0738 7.4504 11.601 7.4504Z" fill="currentColor"/>
</svg>
